<?xml version="1.0" standalone="no"?>
<!DOCTYPE svg PUBLIC "-//W3C//DTD SVG 20010904//EN"
 "http://www.w3.org/TR/2001/REC-SVG-20010904/DTD/svg10.dtd">
<svg version="1.0" xmlns="http://www.w3.org/2000/svg"
 width="1056.000000pt" height="1056.000000pt" viewBox="0 0 1056.000000 1056.000000"
 preserveAspectRatio="xMidYMid meet">
<metadata>
Created by potrace 1.11, written by Peter Selinger 2001-2013
</metadata>
<g transform="translate(0.000000,1056.000000) scale(0.100000,-0.100000)"
fill="#000000" stroke="none">
<path d="M4705 9270 c-3 -6 1 -7 9 -4 18 7 21 14 7 14 -6 0 -13 -4 -16 -10z"/>
<path d="M4495 9249 c-503 -88 -942 -315 -1309 -677 -416 -411 -667 -937 -727
-1527 -10 -103 -9 -275 2 -565 6 -139 119 -526 215 -737 38 -85 135 -260 162
-293 l18 -23 105 22 c306 65 680 173 1044 302 127 44 251 88 277 97 40 13 44
17 32 29 -8 8 -19 11 -25 7 -7 -4 -9 -3 -5 4 3 6 -2 13 -11 15 -17 4 -16 5 0
6 11 0 30 -8 44 -19 15 -11 28 -18 31 -16 6 7 -24 36 -37 36 -6 0 -15 8 -20
19 -6 10 -25 24 -43 31 -78 30 -87 36 -93 58 -3 12 -3 28 1 34 4 7 3 8 -4 4
-14 -8 -16 13 -3 32 27 43 121 51 121 11 0 -20 11 -23 71 -20 25 2 38 -2 42
-13 8 -20 53 -21 90 -1 32 16 54 11 62 -16 4 -10 13 -19 21 -19 8 0 27 -12 41
-26 l26 -26 56 22 c398 162 1039 461 1361 635 58 31 140 75 183 97 42 23 77
45 77 49 0 5 3 8 8 7 16 -4 52 14 46 24 -4 6 -2 8 3 5 13 -8 233 111 233 125
0 6 3 9 6 5 8 -8 64 20 64 32 0 4 -3 11 -7 15 -13 12 -11 35 3 40 7 3 16 0 20
-6 4 -6 3 -8 -3 -5 -15 9 -24 -18 -11 -31 26 -26 72 35 91 121 1 6 6 18 10 25
11 16 -3 15 -26 -2 -14 -11 -15 -15 -5 -19 10 -4 10 -7 -1 -15 -7 -5 -11 -14
-8 -19 3 -5 0 -10 -8 -10 -8 0 -12 5 -8 10 3 5 -4 4 -16 -2 -11 -7 -21 -16
-21 -22 0 -5 -11 -14 -24 -20 -14 -7 -22 -17 -19 -24 5 -14 -25 -28 -48 -23
-8 2 -13 -3 -11 -10 1 -8 -3 -12 -10 -10 -7 3 -18 -1 -25 -8 -7 -7 -22 -10
-33 -7 -11 3 -20 0 -20 -6 0 -6 7 -8 17 -4 11 4 14 3 9 -5 -4 -7 -13 -12 -19
-12 -16 0 -49 -39 -42 -49 3 -5 -2 -11 -10 -15 -10 -4 -15 1 -15 15 0 11 -4
18 -10 14 -5 -3 -7 -11 -4 -18 3 -8 -5 -13 -18 -14 -18 -2 -20 0 -8 7 24 16 2
11 -31 -5 -17 -9 -27 -21 -23 -27 5 -7 -2 -9 -20 -4 -20 5 -26 4 -20 -5 4 -8
3 -9 -5 -5 -7 5 -20 -2 -32 -16 -12 -12 -26 -24 -32 -24 -7 -1 -18 -2 -25 -3
-7 0 -11 -5 -8 -10 3 -5 0 -11 -7 -14 -7 -3 -13 3 -13 12 0 17 8 20 47 22 8 0
20 9 27 19 10 17 9 18 -6 13 -9 -4 -27 -13 -39 -21 -13 -8 -23 -11 -23 -6 0 4
-5 3 -12 -4 -16 -16 -31 -15 -23 1 3 6 -2 2 -11 -10 -20 -27 -34 -30 -34 -5 0
12 -3 13 -8 5 -8 -12 -95 -25 -159 -24 -30 1 -93 -17 -65 -18 7 -1 10 -5 7
-11 -8 -13 -232 -13 -240 -1 -3 5 3 11 12 13 20 4 -109 21 -169 22 -23 1 -38
6 -38 14 0 6 -5 12 -10 12 -6 0 -9 -5 -8 -11 5 -19 -19 -21 -24 -2 -3 11 -16
19 -33 21 -15 1 -34 7 -41 13 -7 6 -23 8 -36 4 -16 -4 -19 -4 -9 3 11 8 9 11
-8 17 -11 3 -31 3 -43 0 -18 -5 -20 -4 -8 4 12 9 9 11 -15 9 -41 -2 -75 10
-75 27 0 20 -77 59 -83 42 -5 -16 -77 33 -77 53 -1 18 -87 73 -101 64 -5 -3
-8 -1 -7 4 2 6 -27 39 -64 75 -38 36 -68 71 -68 76 0 6 -6 11 -14 11 -7 0 -16
9 -19 21 -3 11 -14 23 -24 25 -10 3 -31 25 -47 49 -15 25 -43 61 -62 82 -18
21 -34 43 -34 48 0 6 -9 21 -20 35 -11 14 -20 32 -20 41 0 9 -6 19 -13 22 -6
2 -20 28 -31 56 -10 28 -22 51 -27 51 -5 0 -9 9 -9 19 0 23 -17 37 -23 19 -2
-7 -3 -4 -1 7 2 11 1 31 -3 44 -4 17 -8 20 -15 9 -6 -9 -7 -6 -3 10 7 26 -12
94 -30 104 -7 4 -12 21 -13 38 0 17 -7 39 -14 48 -8 10 -9 13 -1 9 6 -4 14 -3
18 2 8 14 -33 5 -48 -11 -8 -7 -12 -18 -10 -24 2 -7 -2 -18 -10 -26 -8 -7 -19
-24 -26 -36 -15 -28 -30 -21 -23 13 2 14 0 25 -6 25 -7 0 -9 -24 -5 -70 5 -68
4 -70 -19 -71 -21 0 -21 -1 -3 -8 19 -8 19 -8 -3 -22 -12 -8 -22 -19 -22 -25
0 -6 -18 -24 -40 -39 -22 -15 -40 -31 -40 -35 0 -3 -15 -14 -34 -23 -19 -9
-37 -24 -40 -35 -4 -10 -22 -28 -41 -38 -19 -10 -35 -24 -35 -30 0 -6 -7 -17
-16 -25 -42 -35 -49 -68 -49 -235 0 -145 -2 -164 -19 -183 -22 -24 -38 -28
-30 -7 3 7 -3 21 -13 31 -14 15 -17 37 -18 122 -1 82 -5 107 -18 120 -13 13
-19 14 -31 4 -12 -10 -22 -10 -50 0 -19 7 -33 16 -30 21 7 12 -10 10 -22 -2
-6 -6 -25 -12 -42 -13 -18 -1 -32 -5 -32 -9 0 -5 -13 -8 -30 -8 -35 0 -36 -2
-13 -37 l17 -26 -34 7 c-19 4 -44 8 -55 10 -11 1 -28 6 -38 10 -11 6 -24 3
-35 -7 -9 -9 -21 -15 -27 -15 -5 0 -14 -9 -20 -20 -5 -12 -24 -29 -42 -39 -18
-10 -33 -25 -33 -35 0 -10 -11 -25 -25 -34 -14 -9 -25 -26 -26 -38 0 -11 -6
-1 -13 24 -14 47 -76 173 -88 178 -5 2 -8 13 -8 25 0 12 -7 31 -15 41 -8 11
-15 29 -15 40 0 11 -11 50 -23 86 -49 133 -62 186 -61 241 1 42 -3 56 -12 52
-8 -3 -13 10 -15 40 -2 25 -1 43 4 40 4 -2 7 3 7 11 0 10 -6 13 -15 10 -10 -4
-15 0 -15 11 0 9 4 14 9 11 5 -4 7 3 4 14 -3 11 -9 17 -14 15 -12 -8 11 58 27
75 12 12 14 12 14 0 0 -8 9 -1 20 16 18 28 19 35 7 64 -14 33 -9 64 20 115 11
20 53 126 53 134 0 2 -8 -3 -18 -12 -15 -13 -21 -14 -32 -4 -8 7 -10 8 -7 1 4
-7 -5 -20 -20 -29 l-26 -17 29 40 c16 22 32 38 37 35 4 -2 6 0 5 5 -5 16 101
149 159 200 31 28 82 65 112 83 31 18 91 54 133 81 42 26 79 48 83 48 3 0 24
12 48 27 23 16 47 28 53 28 6 0 19 7 29 15 10 8 23 15 29 15 6 1 29 9 50 19
22 10 63 19 91 21 28 1 70 12 94 25 24 12 51 20 60 17 16 -4 29 5 44 30 4 6
-20 1 -53 -13 -33 -13 -72 -24 -87 -24 l-28 1 30 14 c17 7 26 14 21 14 -5 1
-2 8 5 17 14 18 -29 -3 -99 -48 -52 -33 -46 -16 9 26 43 32 122 67 179 81 123
29 163 46 139 60 -8 5 -10 4 -5 -3 9 -15 -16 -16 -31 -1 -8 8 -19 6 -41 -5
-17 -9 -35 -16 -39 -16 -4 1 15 13 42 27 33 17 64 25 92 24 27 -1 57 7 87 23
29 15 54 22 68 18 21 -5 19 -7 -17 -24 -22 -9 -49 -18 -60 -19 -11 0 -14 -3
-7 -6 6 -2 12 -11 12 -19 0 -8 5 -14 10 -14 19 0 10 -18 -11 -23 -12 -3 -18
-10 -15 -15 3 -6 0 -13 -6 -15 -7 -3 3 -3 22 0 19 3 45 11 56 19 12 7 30 12
40 12 11 -1 32 2 47 6 24 6 27 9 16 22 -10 12 -9 16 9 21 38 9 24 24 -18 19
-47 -6 -63 9 -20 19 16 4 30 10 30 15 0 4 18 10 39 14 22 3 43 11 47 17 4 7 0
9 -13 5 -11 -4 -28 -3 -38 0 -13 5 -6 11 31 26 27 10 59 18 71 18 12 0 28 6
35 13 7 7 29 18 48 24 52 16 19 14 -105 -8z m-145 -68 c-8 -5 -26 -12 -40 -15
l-25 -7 25 15 c14 9 32 15 40 15 13 0 13 -1 0 -8z m-515 -291 c-3 -5 -12 -10
-18 -10 -7 0 -6 4 3 10 19 12 23 12 15 0z m-880 -830 c9 -14 -4 -52 -16 -45
-12 8 -12 55 0 55 6 0 13 -5 16 -10z m-55 -174 c0 -2 -7 -7 -16 -10 -8 -3 -12
-2 -9 4 6 10 25 14 25 6z m0 -36 c0 -4 -7 -7 -15 -6 -23 3 -26 12 -5 13 11 1
20 -2 20 -7z m264 -793 c4 -19 3 -26 -4 -22 -5 3 -10 18 -10 32 0 32 5 28 14
-10z m3416 -101 c0 -2 -8 -10 -17 -17 -16 -13 -17 -12 -4 4 13 16 21 21 21 13z
m-48 -24 c-7 -2 -10 -7 -7 -11 2 -5 -7 -13 -21 -20 -14 -6 -23 -7 -20 -2 4 5
0 12 -6 15 -7 3 -2 3 12 0 14 -4 22 -3 18 1 -9 10 15 34 27 27 5 -3 4 -7 -3
-10z m-2722 -61 c3 -4 23 -18 45 -31 22 -13 42 -27 45 -31 3 -4 24 -12 48 -19
30 -9 42 -19 42 -32 0 -10 7 -18 18 -18 21 0 49 -17 41 -25 -4 -3 -32 -10 -64
-15 -31 -5 -67 -12 -78 -15 -20 -6 -21 -5 -4 8 24 20 22 47 -4 47 -12 0 -23 8
-26 20 -6 22 -82 63 -119 63 -13 0 -24 3 -24 8 0 5 5 9 11 9 5 0 7 5 4 10 -9
15 -51 12 -65 -5 -7 -8 -17 -15 -23 -15 -5 0 -15 -7 -22 -16 -11 -15 -12 -15
-10 2 3 49 56 77 130 68 27 -3 52 -9 55 -13z m-312 -167 c-7 -16 -16 -32 -21
-35 -4 -3 -7 -12 -5 -19 2 -7 -3 -15 -11 -17 -10 -4 -11 0 -6 17 6 18 4 22 -8
17 -11 -4 -17 2 -22 23 -4 17 -11 32 -16 35 -5 4 -6 -1 -3 -9 7 -19 -12 -22
-20 -3 -3 6 -3 0 -1 -15 2 -16 -1 -28 -6 -28 -15 0 -10 46 6 60 9 7 32 15 52
17 21 2 39 6 42 9 3 2 11 -2 18 -9 12 -11 12 -19 1 -43z m722 -14 c19 -11 31
-20 25 -21 -5 0 1 -4 14 -8 33 -9 50 -36 33 -53 -10 -10 -14 -10 -20 -1 -10
16 -81 -2 -98 -25 -10 -13 -15 -14 -27 -3 -10 7 -35 11 -63 10 -31 -2 -49 1
-52 9 -2 7 7 12 25 12 48 0 58 13 39 50 -9 18 -16 34 -16 36 0 2 19 5 43 7 23
2 47 4 52 5 6 1 26 -7 45 -18z m-797 -30 c3 -11 1 -20 -4 -20 -5 0 -9 9 -9 20
0 11 2 20 4 20 2 0 6 -9 9 -20z m29 -72 c-8 -8 -9 -4 -5 13 4 13 8 18 11 10 2
-7 -1 -18 -6 -23z m973 13 c-6 -5 -22 -13 -37 -16 -22 -6 -28 -4 -28 9 0 12
10 16 37 16 23 0 33 -4 28 -9z m-502 -25 c16 -13 15 -14 -10 -19 -18 -3 -36 1
-52 14 l-24 19 34 0 c19 0 42 -7 52 -14z m207 -410 c0 -7 -6 -19 -14 -25 -10
-8 -13 -27 -11 -56 4 -44 4 -44 -23 -34 -38 15 -53 49 -21 49 6 0 7 -5 4 -10
-4 -6 -1 -9 7 -8 7 2 12 -3 10 -10 -1 -8 2 -11 9 -7 7 5 5 14 -9 27 -19 19
-21 20 -44 4 -12 -9 -22 -19 -20 -21 6 -12 1 -26 -8 -20 -5 3 -10 1 -10 -5 0
-6 -4 -8 -10 -5 -5 3 -10 11 -10 16 0 6 5 7 10 4 6 -3 10 -1 10 5 0 15 17 31
62 58 20 12 39 29 42 37 7 19 26 20 26 1z m423 -83 c-7 -2 -19 -2 -25 0 -7 3
-2 5 12 5 14 0 19 -2 13 -5z m-478 -44 c11 -17 2 -18 -25 -4 -24 14 -24 14 -3
15 12 0 25 -5 28 -11z m40 -68 c3 -5 2 -12 -3 -15 -5 -3 -9 1 -9 9 0 17 3 19
12 6z m40 -1 c-3 -5 -12 -10 -18 -10 -7 0 -6 4 3 10 19 12 23 12 15 0z"/>
<path d="M3450 6715 c-11 -13 -10 -14 4 -9 9 3 16 10 16 15 0 13 -6 11 -20 -6z"/>
<path d="M4660 9263 c8 -3 22 -11 30 -17 13 -10 13 -9 1 7 -7 9 -21 17 -30 16
-13 0 -14 -1 -1 -6z"/>
<path d="M4606 9227 c3 -10 9 -15 12 -12 3 3 0 11 -7 18 -10 9 -11 8 -5 -6z"/>
<path d="M4555 9200 c-16 -11 -41 -20 -55 -21 -14 0 -19 -3 -12 -6 10 -4 10
-8 1 -19 -16 -19 1 -18 20 2 9 8 34 26 56 39 22 14 36 24 30 25 -5 0 -23 -9
-40 -20z"/>
<path d="M4553 9150 c-37 -15 -24 -42 22 -47 11 -1 14 1 7 4 -10 4 -8 11 9 29
21 22 21 24 3 23 -10 0 -29 -4 -41 -9z m27 -15 c-14 -17 -40 -20 -40 -4 0 5 4
8 9 4 5 -3 12 -1 16 5 3 5 11 10 17 10 7 0 6 -6 -2 -15z"/>
<path d="M4155 9080 c-11 -5 -14 -9 -7 -9 7 -1 10 -5 7 -11 -10 -17 0 -11 18
10 18 21 14 24 -18 10z"/>
<path d="M4100 8991 c-16 -5 -21 -9 -13 -14 12 -8 93 9 93 18 0 7 -51 4 -80
-4z"/>
<path d="M3910 8950 c-9 -6 -10 -10 -3 -10 6 0 15 5 18 10 8 12 4 12 -15 0z"/>
<path d="M4355 8938 c-16 -6 -32 -14 -35 -17 -3 -3 -23 -15 -45 -26 -130 -63
-282 -188 -205 -168 15 4 20 0 20 -16 0 -12 4 -19 10 -16 5 3 46 -1 90 -9 51
-10 88 -12 103 -7 26 10 61 -4 51 -21 -5 -7 -2 -8 5 -4 7 5 10 11 7 14 -3 3
-1 11 5 18 8 10 5 13 -17 11 -15 -1 -29 4 -31 11 -3 7 3 12 14 12 15 0 16 -2
3 -11 -13 -9 -13 -10 0 -6 8 2 15 10 16 18 3 42 4 44 13 31 6 -10 10 -9 14 7
3 12 0 21 -6 21 -7 0 -3 7 8 16 15 11 17 17 7 23 -9 6 -8 13 8 31 11 12 17 26
15 30 -3 5 7 7 22 5 24 -2 25 -1 10 10 -9 6 -14 15 -10 18 3 4 13 1 22 -5 9
-7 5 0 -8 15 -26 29 -39 31 -86 15z m63 -22 c-7 -8 -15 -12 -17 -11 -5 6 10
25 20 25 5 0 4 -6 -3 -14z"/>
<path d="M4309 8608 c-3 -26 3 -43 19 -58 14 -14 15 -13 3 3 -11 14 -11 17 0
17 9 1 8 4 -4 11 -14 8 -16 14 -6 25 8 10 8 14 0 14 -6 0 -12 -6 -12 -12z"/>
<path d="M3984 8350 c-5 -4 -35 -22 -67 -38 -32 -17 -77 -47 -100 -66 l-42
-35 32 3 c34 5 68 20 95 43 11 10 22 12 33 5 10 -5 35 -6 56 -2 21 4 39 4 39
-1 0 -5 6 -6 14 -3 8 3 17 1 20 -4 3 -5 -4 -13 -17 -17 -13 -4 -17 -8 -9 -12
14 -6 16 -49 2 -58 -5 -3 -10 -11 -10 -16 0 -6 5 -7 10 -4 6 3 10 -4 10 -17 1
-21 4 -19 35 17 19 22 35 50 35 63 0 24 10 28 27 11 13 -13 33 -4 33 16 0 17
-23 25 -76 25 -40 0 -44 2 -44 25 0 38 -55 85 -76 65z"/>
<path d="M3968 8216 c-15 -8 -29 -12 -31 -9 -3 3 -11 -5 -17 -17 -10 -18 -10
-21 2 -14 7 4 0 -8 -15 -27 -48 -59 -87 -122 -87 -141 0 -17 2 -17 28 -4 39
20 61 48 65 82 5 41 19 63 67 107 41 38 36 48 -12 23z"/>
<path d="M4140 8100 c-25 -14 -104 -49 -125 -55 -16 -5 -17 -8 -5 -15 8 -5 24
-7 35 -3 16 5 109 64 124 79 7 7 -13 3 -29 -6z"/>
<path d="M2941 7948 c5 -10 11 -18 12 -18 2 0 3 8 3 18 0 10 -6 19 -13 19 -8
0 -9 -6 -2 -19z"/>
<path d="M2920 7945 c0 -5 5 -17 10 -25 5 -8 10 -10 10 -5 0 6 -5 17 -10 25
-5 8 -10 11 -10 5z"/>
<path d="M8104 7907 c-155 -132 -505 -399 -773 -591 -519 -372 -1344 -884
-1878 -1166 -35 -18 -60 -36 -58 -41 3 -4 0 -11 -6 -15 -8 -4 -9 -3 -5 4 12
19 -1 14 -85 -30 -53 -29 -77 -48 -74 -57 5 -12 3 -12 -12 0 -9 8 -14 9 -10 2
4 -6 3 -14 -3 -18 -5 -3 -10 -2 -10 4 0 6 -7 8 -16 4 -9 -3 -14 -13 -11 -24 3
-12 0 -16 -9 -12 -26 10 -14 -7 18 -27 l33 -20 -34 5 c-34 4 -55 15 -30 15 12
0 12 2 0 9 -13 8 -13 12 0 27 13 16 11 16 -21 -1 -19 -10 -38 -22 -41 -27 -3
-5 -10 -9 -15 -9 -19 2 -44 -11 -39 -20 3 -5 -2 -6 -11 -2 -13 5 -15 3 -9 -7
5 -8 4 -11 -2 -7 -6 4 -93 -33 -194 -82 -966 -469 -1875 -783 -2504 -867 -174
-23 -423 -23 -530 0 -97 22 -188 62 -239 106 -21 19 -41 29 -44 24 -113 -163
-161 -251 -197 -359 -23 -68 -27 -92 -23 -162 4 -68 9 -88 31 -122 37 -56 98
-97 181 -124 64 -20 92 -22 271 -22 163 1 223 5 325 23 332 60 765 190 1188
357 189 75 227 87 243 77 24 -15 32 -15 23 1 -4 6 2 3 14 -7 26 -22 30 -35 5
-15 -12 10 -14 10 -9 1 11 -19 65 -44 78 -36 6 4 8 3 4 -4 -3 -6 6 -20 22 -31
45 -32 260 -141 278 -141 9 0 39 14 66 30 26 16 50 30 53 30 2 0 34 16 70 36
75 41 75 42 -11 99 -30 20 -54 43 -54 51 0 7 -4 14 -10 14 -5 0 -10 6 -10 14
0 7 -13 30 -30 51 -16 21 -30 44 -30 51 0 8 -5 14 -11 14 -6 0 -8 -7 -5 -17 4
-10 4 -14 -1 -10 -4 5 -8 24 -9 42 l-1 35 311 154 c321 160 429 216 626 328
63 35 129 71 145 79 17 8 42 23 57 33 28 18 28 18 38 -9 5 -14 17 -33 25 -41
21 -21 20 -27 -20 -78 -32 -42 -55 -96 -41 -96 3 0 14 17 23 38 18 36 19 37
73 37 49 0 55 -2 52 -20 -2 -11 -11 -28 -19 -37 -13 -15 -10 -14 22 2 33 17
40 17 58 5 18 -12 28 -8 111 47 50 34 93 65 94 70 2 4 9 8 16 8 6 0 27 13 46
29 19 15 50 36 68 45 17 9 32 21 32 26 0 6 5 10 11 10 20 0 69 41 63 52 -4 7
-2 8 5 4 6 -4 28 5 49 21 20 16 50 37 65 46 15 10 25 22 22 27 -4 6 1 7 11 3
11 -4 15 -2 11 4 -4 6 1 10 11 9 9 0 16 4 15 10 -1 6 4 11 10 11 7 0 65 39
130 87 105 78 117 89 105 104 -12 15 -11 16 4 4 16 -13 28 -11 53 10 6 5 59
45 120 91 60 45 117 89 126 97 9 8 42 33 72 55 64 46 71 56 56 89 -9 19 -6 32
14 72 13 27 28 69 32 94 3 25 9 53 11 62 3 9 76 70 162 135 567 428 1101 929
1311 1231 28 40 24 40 -25 -1z m-1516 -1532 c-3 -3 -9 2 -12 12 -6 14 -5 15 5
6 7 -7 10 -15 7 -18z m-1551 -500 c0 -8 -4 -12 -9 -9 -5 3 -6 10 -3 15 9 13
12 11 12 -6z m217 -111 c9 -24 7 -27 -9 -10 -17 17 -19 26 -6 26 5 0 12 -7 15
-16z m55 -77 c-2 -1 -12 -9 -22 -16 -15 -12 -17 -12 -11 3 3 9 13 16 22 16 8
0 13 -1 11 -3z"/>
<path d="M7155 7740 c3 -5 8 -10 11 -10 2 0 4 5 4 10 0 6 -5 10 -11 10 -5 0
-7 -4 -4 -10z"/>
<path d="M7110 7730 c0 -5 5 -10 11 -10 5 0 7 5 4 10 -3 6 -8 10 -11 10 -2 0
-4 -4 -4 -10z"/>
<path d="M7136 7715 c-3 -9 -10 -13 -16 -10 -11 7 -14 -8 -3 -18 3 -4 13 2 21
14 8 11 12 22 9 25 -2 3 -7 -2 -11 -11z"/>
<path d="M7159 7708 c-1 -7 -1 -17 0 -21 1 -5 -3 -6 -8 -3 -5 3 -14 0 -20 -8
-9 -11 -9 -15 1 -19 11 -5 11 -7 0 -15 -7 -5 -10 -17 -7 -28 3 -10 -2 -5 -10
11 l-16 30 6 -29 c5 -23 3 -27 -9 -23 -15 6 -21 -16 -19 -70 1 -7 -3 -10 -8
-7 -5 3 -9 1 -9 -5 0 -5 6 -12 13 -15 6 -4 2 -4 -10 -2 -28 5 -37 -17 -12 -32
12 -8 19 -8 19 -2 0 5 5 10 10 10 6 0 20 9 32 20 12 10 26 16 32 12 6 -3 21
-8 34 -10 53 -7 71 -21 83 -64 6 -24 12 -55 12 -70 0 -23 3 -26 14 -16 15 12
11 57 -9 107 -6 14 -11 29 -10 33 1 6 -29 103 -49 155 -7 20 -12 24 -18 14 -5
-8 -14 -10 -20 -7 -14 9 -14 46 0 46 5 0 7 5 4 10 -9 14 -25 12 -26 -2z m57
-103 c6 -32 1 -55 -10 -44 -11 11 -17 79 -8 79 6 0 14 -16 18 -35z"/>
<path d="M7079 7664 c-5 -15 -8 -29 -5 -31 2 -2 8 10 14 26 13 38 5 41 -9 5z"/>
<path d="M6836 7228 c-15 -17 -24 -34 -19 -41 4 -7 -2 -5 -12 3 -10 8 -16 10
-12 3 4 -6 1 -14 -5 -16 -8 -3 -6 -6 5 -6 10 -1 15 -6 12 -11 -4 -6 -11 -7
-17 -4 -7 4 -8 2 -4 -4 9 -15 57 -4 74 17 32 40 42 59 37 73 -9 23 -29 18 -59
-14z"/>
<path d="M4379 5912 c11 -8 10 -12 -5 -21 -27 -15 -12 -13 27 4 19 8 26 14 17
15 -9 0 -25 3 -35 6 -14 4 -15 4 -4 -4z"/>
<path d="M3197 3558 c-18 -17 -307 -491 -414 -680 -2 -5 27 -8 64 -8 l69 0
155 265 c85 145 156 265 159 265 5 0 141 -233 143 -247 1 -4 -41 -8 -94 -9
-53 -1 -101 -4 -108 -8 -6 -4 -20 -25 -31 -47 l-20 -39 159 0 160 0 52 -90 51
-90 73 0 73 0 -199 338 c-110 185 -209 345 -221 355 -27 23 -42 22 -71 -5z"/>
<path d="M1230 3221 l0 -351 60 0 60 0 0 291 0 291 208 -4 c226 -4 253 -10
282 -63 20 -37 17 -128 -4 -160 -30 -46 -70 -55 -241 -55 l-155 0 0 -55 0 -55
128 0 129 0 84 -94 84 -94 90 -1 90 -1 -105 106 c-68 68 -100 108 -92 111 30
11 86 70 103 108 22 47 25 157 7 216 -15 53 -69 113 -120 135 -38 16 -78 19
-325 22 l-283 3 0 -350z"/>
<path d="M2107 3563 c-4 -3 -7 -161 -7 -350 l0 -343 310 0 310 0 0 60 0 60
-247 2 -248 3 0 225 0 225 248 3 247 2 0 60 0 60 -303 0 c-167 0 -307 -3 -310
-7z"/>
<path d="M3760 3220 l0 -350 295 0 295 0 0 60 0 60 -232 2 -233 3 -3 288 -2
287 -60 0 -60 0 0 -350z"/>
<path d="M4670 3567 c0 -13 356 -666 373 -684 11 -13 31 -23 44 -23 35 0 62
33 116 138 26 50 51 92 55 92 4 0 31 -48 61 -106 56 -110 78 -132 124 -120 14
3 34 21 45 38 27 46 340 631 348 652 6 15 -1 17 -60 14 l-67 -3 -137 -262
c-75 -144 -139 -263 -142 -263 -3 0 -65 119 -138 265 l-132 265 -70 0 c-38 0
-70 -1 -70 -3 0 -1 40 -80 88 -174 l89 -172 -50 -91 c-27 -51 -53 -88 -58 -83
-5 5 -68 123 -142 263 l-133 255 -72 3 c-40 2 -72 1 -72 -1z"/>
<path d="M6090 3564 c-115 -23 -208 -92 -251 -187 -20 -43 -24 -69 -24 -152 0
-87 3 -107 26 -156 34 -72 96 -134 168 -168 53 -25 63 -26 221 -26 157 0 168
1 220 26 74 35 126 89 164 168 27 58 30 77 31 156 0 77 -4 98 -26 146 -38 80
-88 131 -161 164 -57 26 -74 28 -203 31 -77 1 -151 0 -165 -2z m261 -124 c147
-28 221 -199 146 -336 -53 -95 -124 -120 -315 -112 -121 5 -171 28 -217 102
-26 44 -30 58 -30 125 0 65 4 83 27 123 32 53 78 85 140 97 62 12 186 13 249
1z"/>
<path d="M6750 3221 l0 -351 60 0 60 0 0 291 0 291 208 -4 c226 -4 256 -10
280 -63 17 -37 15 -120 -4 -156 -25 -50 -64 -59 -239 -59 l-155 0 0 -55 0 -55
129 0 129 0 83 -95 84 -94 84 -1 85 0 -34 38 c-19 20 -64 68 -100 105 -61 64
-64 69 -45 79 42 23 92 86 105 132 27 97 -1 227 -62 283 -57 54 -82 58 -385
61 l-283 3 0 -350z"/>
<path d="M7620 3220 l0 -350 295 0 295 0 0 60 0 60 -232 2 -233 3 -3 288 -2
287 -60 0 -60 0 0 -350z"/>
<path d="M8298 3564 c-5 -4 -8 -162 -8 -351 l0 -345 243 4 c224 3 246 5 289
25 133 61 208 179 208 327 0 145 -68 254 -195 313 -60 28 -62 28 -295 31 -129
2 -238 0 -242 -4z m433 -124 c67 -13 118 -48 150 -103 19 -34 24 -56 24 -117
0 -95 -31 -155 -103 -197 -46 -27 -52 -28 -219 -31 l-173 -4 0 224 c0 124 3
228 7 231 10 11 254 8 314 -3z"/>
<path d="M2314 3266 c-3 -8 -4 -31 -2 -52 l3 -39 188 -3 187 -2 0 55 0 55
-185 0 c-150 0 -187 -3 -191 -14z"/>
<path d="M1230 2071 l0 -351 218 0 c280 0 342 16 421 106 128 145 123 375 -11
504 -77 74 -119 83 -390 88 l-238 4 0 -351z m431 219 c76 -15 126 -51 155
-113 44 -95 28 -204 -41 -273 -54 -54 -99 -64 -279 -64 l-146 0 0 230 0 230
129 0 c70 0 152 -5 182 -10z"/>
<path d="M2060 2070 l0 -350 310 0 310 0 0 60 0 60 -247 2 -248 3 0 225 0 225
248 3 247 2 0 60 0 60 -310 0 -310 0 0 -350z"/>
<path d="M2740 2416 c0 -10 395 -664 413 -683 26 -29 58 -29 82 -3 11 12 107
170 216 353 l196 332 -66 3 c-48 2 -68 -1 -76 -11 -5 -8 -75 -127 -155 -266
-79 -138 -147 -251 -150 -251 -4 0 -76 119 -161 265 l-154 265 -72 0 c-40 0
-73 -2 -73 -4z"/>
<path d="M3727 2413 c-4 -3 -7 -161 -7 -350 l0 -343 310 0 310 0 0 60 0 60
-247 2 -248 3 0 225 0 225 248 3 247 2 0 60 0 60 -303 0 c-167 0 -307 -3 -310
-7z"/>
<path d="M4447 2413 c-4 -3 -7 -161 -7 -350 l0 -343 295 0 295 0 0 60 0 60
-232 2 -233 3 -3 288 -2 287 -53 0 c-30 0 -57 -3 -60 -7z"/>
<path d="M5369 2410 c-156 -27 -257 -144 -267 -311 -8 -135 44 -248 146 -320
70 -49 139 -62 304 -57 117 3 140 7 188 29 74 35 126 89 164 168 27 59 31 76
31 156 0 77 -4 98 -28 150 -67 143 -176 197 -396 194 -53 -1 -117 -5 -142 -9z
m321 -135 c167 -84 170 -324 6 -413 -40 -21 -246 -29 -314 -12 -65 16 -110 53
-138 114 -65 139 6 296 147 326 72 15 259 6 299 -15z"/>
<path d="M6040 2071 l0 -351 60 0 60 0 0 290 0 290 178 0 c206 -1 247 -8 284
-49 40 -45 45 -91 17 -148 -32 -65 -57 -72 -247 -72 l-153 -1 3 -57 3 -58 171
0 c170 0 171 0 229 30 82 42 118 100 123 199 5 90 -10 146 -51 193 -64 73 -87
78 -399 81 l-278 3 0 -350z"/>
<path d="M6860 2070 l0 -350 310 0 310 0 0 60 0 60 -250 0 -250 0 0 230 0 230
250 0 251 0 -3 58 -3 57 -307 3 -308 2 0 -350z"/>
<path d="M7580 2071 l0 -351 60 0 60 0 0 290 0 290 188 0 c103 0 205 -5 227
-10 96 -22 127 -153 55 -233 l-28 -32 -176 -3 -176 -4 0 -54 0 -54 133 0 132
-1 84 -94 83 -95 86 0 87 0 -105 105 c-57 57 -102 106 -99 108 2 1 21 14 41
27 58 39 92 110 92 195 1 84 -15 135 -58 183 -63 72 -86 77 -403 80 l-283 3 0
-350z"/>
<path d="M8585 2406 c-92 -29 -135 -86 -135 -180 0 -71 17 -113 63 -153 50
-43 107 -53 322 -53 176 0 185 -1 210 -22 47 -41 31 -127 -28 -148 -18 -6
-137 -10 -299 -10 l-268 0 1 -60 2 -60 281 0 c174 0 296 4 321 11 129 36 178
222 88 330 -47 56 -76 62 -315 68 -189 5 -220 8 -235 24 -26 26 -23 91 5 119
22 23 28 23 286 26 l264 3 4 56 c1 30 1 57 -1 59 -2 2 -122 4 -265 3 -180 0
-273 -4 -301 -13z"/>
<path d="M2274 2116 c-3 -8 -4 -31 -2 -52 l3 -39 188 -3 187 -2 0 55 0 55
-185 0 c-150 0 -187 -3 -191 -14z"/>
<path d="M3937 2124 c-4 -4 -7 -29 -7 -56 l0 -48 193 2 192 3 0 50 0 50 -186
3 c-102 1 -188 -1 -192 -4z"/>
<path d="M7070 2075 l0 -55 190 0 190 0 0 55 0 55 -190 0 -190 0 0 -55z"/>
</g>
</svg>
